<mxfile host="app.diagrams.net" modified="2023-12-13T22:35:13.975Z" agent="Mozilla/5.0 (Macintosh; Intel Mac OS X 10_15_7) AppleWebKit/605.1.15 (KHTML, like Gecko) Version/16.3 Safari/605.1.15" etag="iSEYhTh-bD92JKHQL6vG" version="22.1.8" type="github" pages="2">
  <diagram name="Page-1" id="mT_qJSKLxObh-3P-d6SF">
    <mxGraphModel dx="1468" dy="995" grid="1" gridSize="10" guides="1" tooltips="1" connect="1" arrows="1" fold="1" page="1" pageScale="1" pageWidth="850" pageHeight="1100" math="0" shadow="0">
      <root>
        <mxCell id="0" />
        <mxCell id="1" parent="0" />
        <mxCell id="VSOZKm9bsuty1RuKZRB--1" value="my Account&amp;nbsp;" style="points=[[0,0],[0.25,0],[0.5,0],[0.75,0],[1,0],[1,0.25],[1,0.5],[1,0.75],[1,1],[0.75,1],[0.5,1],[0.25,1],[0,1],[0,0.75],[0,0.5],[0,0.25]];outlineConnect=0;gradientColor=none;html=1;whiteSpace=wrap;fontSize=12;fontStyle=0;container=1;pointerEvents=0;collapsible=0;recursiveResize=0;shape=mxgraph.aws4.group;grIcon=mxgraph.aws4.group_aws_cloud_alt;strokeColor=#232F3E;fillColor=none;verticalAlign=top;align=left;spacingLeft=30;fontColor=#232F3E;dashed=0;" parent="1" vertex="1">
          <mxGeometry x="70" y="60" width="730" height="500" as="geometry" />
        </mxCell>
        <mxCell id="VSOZKm9bsuty1RuKZRB--6" value="Region" style="points=[[0,0],[0.25,0],[0.5,0],[0.75,0],[1,0],[1,0.25],[1,0.5],[1,0.75],[1,1],[0.75,1],[0.5,1],[0.25,1],[0,1],[0,0.75],[0,0.5],[0,0.25]];outlineConnect=0;gradientColor=none;html=1;whiteSpace=wrap;fontSize=12;fontStyle=0;container=1;pointerEvents=0;collapsible=0;recursiveResize=0;shape=mxgraph.aws4.group;grIcon=mxgraph.aws4.group_region;strokeColor=#00A4A6;fillColor=none;verticalAlign=top;align=left;spacingLeft=30;fontColor=#147EBA;dashed=1;" parent="VSOZKm9bsuty1RuKZRB--1" vertex="1">
          <mxGeometry x="30" y="30" width="660" height="450" as="geometry" />
        </mxCell>
        <mxCell id="VSOZKm9bsuty1RuKZRB--7" value="my vpc" style="points=[[0,0],[0.25,0],[0.5,0],[0.75,0],[1,0],[1,0.25],[1,0.5],[1,0.75],[1,1],[0.75,1],[0.5,1],[0.25,1],[0,1],[0,0.75],[0,0.5],[0,0.25]];outlineConnect=0;gradientColor=none;html=1;whiteSpace=wrap;fontSize=12;fontStyle=0;container=1;pointerEvents=0;collapsible=0;recursiveResize=0;shape=mxgraph.aws4.group;grIcon=mxgraph.aws4.group_vpc2;strokeColor=#8C4FFF;fillColor=none;verticalAlign=top;align=left;spacingLeft=30;fontColor=#AAB7B8;dashed=0;" parent="VSOZKm9bsuty1RuKZRB--6" vertex="1">
          <mxGeometry x="20" y="30" width="620" height="400" as="geometry" />
        </mxCell>
        <mxCell id="VSOZKm9bsuty1RuKZRB--8" value="Us-east-1" style="fillColor=none;strokeColor=#147EBA;dashed=1;verticalAlign=top;fontStyle=0;fontColor=#147EBA;whiteSpace=wrap;html=1;" parent="VSOZKm9bsuty1RuKZRB--7" vertex="1">
          <mxGeometry x="40" y="30" width="250" height="340" as="geometry" />
        </mxCell>
        <mxCell id="VSOZKm9bsuty1RuKZRB--10" value="Public subnet" style="points=[[0,0],[0.25,0],[0.5,0],[0.75,0],[1,0],[1,0.25],[1,0.5],[1,0.75],[1,1],[0.75,1],[0.5,1],[0.25,1],[0,1],[0,0.75],[0,0.5],[0,0.25]];outlineConnect=0;gradientColor=none;html=1;whiteSpace=wrap;fontSize=12;fontStyle=0;container=1;pointerEvents=0;collapsible=0;recursiveResize=0;shape=mxgraph.aws4.group;grIcon=mxgraph.aws4.group_security_group;grStroke=0;strokeColor=#7AA116;fillColor=#F2F6E8;verticalAlign=top;align=left;spacingLeft=30;fontColor=#248814;dashed=0;" parent="VSOZKm9bsuty1RuKZRB--7" vertex="1">
          <mxGeometry x="90" y="90" width="130" height="130" as="geometry" />
        </mxCell>
        <mxCell id="VSOZKm9bsuty1RuKZRB--12" value="" style="sketch=0;points=[[0,0,0],[0.25,0,0],[0.5,0,0],[0.75,0,0],[1,0,0],[0,1,0],[0.25,1,0],[0.5,1,0],[0.75,1,0],[1,1,0],[0,0.25,0],[0,0.5,0],[0,0.75,0],[1,0.25,0],[1,0.5,0],[1,0.75,0]];outlineConnect=0;fontColor=#232F3E;fillColor=#ED7100;strokeColor=#ffffff;dashed=0;verticalLabelPosition=bottom;verticalAlign=top;align=center;html=1;fontSize=12;fontStyle=0;aspect=fixed;shape=mxgraph.aws4.resourceIcon;resIcon=mxgraph.aws4.ec2;" parent="VSOZKm9bsuty1RuKZRB--7" vertex="1">
          <mxGeometry x="100" y="128" width="54" height="54" as="geometry" />
        </mxCell>
        <mxCell id="VSOZKm9bsuty1RuKZRB--18" value="us-east-2" style="fillColor=none;strokeColor=#147EBA;dashed=1;verticalAlign=top;fontStyle=0;fontColor=#147EBA;whiteSpace=wrap;html=1;" parent="VSOZKm9bsuty1RuKZRB--7" vertex="1">
          <mxGeometry x="340" y="30" width="250" height="340" as="geometry" />
        </mxCell>
        <mxCell id="VSOZKm9bsuty1RuKZRB--21" value="" style="sketch=0;points=[[0,0,0],[0.25,0,0],[0.5,0,0],[0.75,0,0],[1,0,0],[0,1,0],[0.25,1,0],[0.5,1,0],[0.75,1,0],[1,1,0],[0,0.25,0],[0,0.5,0],[0,0.75,0],[1,0.25,0],[1,0.5,0],[1,0.75,0]];outlineConnect=0;fontColor=#232F3E;fillColor=#ED7100;strokeColor=#ffffff;dashed=0;verticalLabelPosition=bottom;verticalAlign=top;align=center;html=1;fontSize=12;fontStyle=0;aspect=fixed;shape=mxgraph.aws4.resourceIcon;resIcon=mxgraph.aws4.ec2;" parent="VSOZKm9bsuty1RuKZRB--7" vertex="1">
          <mxGeometry x="410" y="140" width="50" height="50" as="geometry" />
        </mxCell>
        <mxCell id="VSOZKm9bsuty1RuKZRB--30" value="Public subnet" style="points=[[0,0],[0.25,0],[0.5,0],[0.75,0],[1,0],[1,0.25],[1,0.5],[1,0.75],[1,1],[0.75,1],[0.5,1],[0.25,1],[0,1],[0,0.75],[0,0.5],[0,0.25]];outlineConnect=0;gradientColor=none;html=1;whiteSpace=wrap;fontSize=12;fontStyle=0;container=1;pointerEvents=0;collapsible=0;recursiveResize=0;shape=mxgraph.aws4.group;grIcon=mxgraph.aws4.group_security_group;grStroke=0;strokeColor=#7AA116;fillColor=#F2F6E8;verticalAlign=top;align=left;spacingLeft=30;fontColor=#248814;dashed=0;" parent="VSOZKm9bsuty1RuKZRB--7" vertex="1">
          <mxGeometry x="390" y="91" width="130" height="130" as="geometry" />
        </mxCell>
        <mxCell id="VSOZKm9bsuty1RuKZRB--31" value="" style="sketch=0;points=[[0,0,0],[0.25,0,0],[0.5,0,0],[0.75,0,0],[1,0,0],[0,1,0],[0.25,1,0],[0.5,1,0],[0.75,1,0],[1,1,0],[0,0.25,0],[0,0.5,0],[0,0.75,0],[1,0.25,0],[1,0.5,0],[1,0.75,0]];outlineConnect=0;fontColor=#232F3E;fillColor=#ED7100;strokeColor=#ffffff;dashed=0;verticalLabelPosition=bottom;verticalAlign=top;align=center;html=1;fontSize=12;fontStyle=0;aspect=fixed;shape=mxgraph.aws4.resourceIcon;resIcon=mxgraph.aws4.ec2;" parent="VSOZKm9bsuty1RuKZRB--7" vertex="1">
          <mxGeometry x="410" y="128" width="53" height="53" as="geometry" />
        </mxCell>
        <mxCell id="VSOZKm9bsuty1RuKZRB--32" value="" style="sketch=0;outlineConnect=0;fontColor=#232F3E;gradientColor=none;fillColor=#8C4FFF;strokeColor=none;dashed=0;verticalLabelPosition=bottom;verticalAlign=top;align=center;html=1;fontSize=12;fontStyle=0;aspect=fixed;pointerEvents=1;shape=mxgraph.aws4.application_load_balancer;" parent="VSOZKm9bsuty1RuKZRB--7" vertex="1">
          <mxGeometry x="290" y="91" width="50" height="50" as="geometry" />
        </mxCell>
        <mxCell id="VSOZKm9bsuty1RuKZRB--13" value="Internet&#xa;gateway" style="sketch=0;outlineConnect=0;fontColor=#232F3E;gradientColor=none;strokeColor=#232F3E;fillColor=#ffffff;dashed=0;verticalLabelPosition=bottom;verticalAlign=top;align=center;html=1;fontSize=12;fontStyle=0;aspect=fixed;shape=mxgraph.aws4.resourceIcon;resIcon=mxgraph.aws4.internet_gateway;" parent="VSOZKm9bsuty1RuKZRB--1" vertex="1">
          <mxGeometry x="335" y="30" width="60" height="60" as="geometry" />
        </mxCell>
        <mxCell id="VSOZKm9bsuty1RuKZRB--14" value="" style="sketch=0;points=[[0,0,0],[0.25,0,0],[0.5,0,0],[0.75,0,0],[1,0,0],[0,1,0],[0.25,1,0],[0.5,1,0],[0.75,1,0],[1,1,0],[0,0.25,0],[0,0.5,0],[0,0.75,0],[1,0.25,0],[1,0.5,0],[1,0.75,0]];outlineConnect=0;fontColor=#232F3E;fillColor=#8C4FFF;strokeColor=#ffffff;dashed=0;verticalLabelPosition=bottom;verticalAlign=top;align=center;html=1;fontSize=12;fontStyle=0;aspect=fixed;shape=mxgraph.aws4.resourceIcon;resIcon=mxgraph.aws4.route_53;" parent="VSOZKm9bsuty1RuKZRB--1" vertex="1">
          <mxGeometry x="470" width="30" height="30" as="geometry" />
        </mxCell>
        <mxCell id="VSOZKm9bsuty1RuKZRB--5" value="&lt;font style=&quot;font-size: 32px;&quot;&gt;Single Tier&amp;nbsp;&lt;/font&gt;" style="text;html=1;strokeColor=none;fillColor=none;align=center;verticalAlign=middle;whiteSpace=wrap;rounded=0;" parent="1" vertex="1">
          <mxGeometry x="280" width="310" height="60" as="geometry" />
        </mxCell>
        <mxCell id="VSOZKm9bsuty1RuKZRB--34" value="2 Tier Architecture&amp;nbsp;" style="text;strokeColor=none;fillColor=none;html=1;fontSize=24;fontStyle=1;verticalAlign=middle;align=center;" parent="1" vertex="1">
          <mxGeometry x="365" y="700" width="100" height="40" as="geometry" />
        </mxCell>
        <mxCell id="VSOZKm9bsuty1RuKZRB--35" value="AWS Cloud" style="points=[[0,0],[0.25,0],[0.5,0],[0.75,0],[1,0],[1,0.25],[1,0.5],[1,0.75],[1,1],[0.75,1],[0.5,1],[0.25,1],[0,1],[0,0.75],[0,0.5],[0,0.25]];outlineConnect=0;gradientColor=none;html=1;whiteSpace=wrap;fontSize=12;fontStyle=0;container=1;pointerEvents=0;collapsible=0;recursiveResize=0;shape=mxgraph.aws4.group;grIcon=mxgraph.aws4.group_aws_cloud_alt;strokeColor=#232F3E;fillColor=none;verticalAlign=top;align=left;spacingLeft=30;fontColor=#232F3E;dashed=0;" parent="1" vertex="1">
          <mxGeometry x="50" y="760" width="957.44" height="840" as="geometry" />
        </mxCell>
        <mxCell id="w30GqCXyvYgye3GqoUX_-6" value="VPC" style="points=[[0,0],[0.25,0],[0.5,0],[0.75,0],[1,0],[1,0.25],[1,0.5],[1,0.75],[1,1],[0.75,1],[0.5,1],[0.25,1],[0,1],[0,0.75],[0,0.5],[0,0.25]];outlineConnect=0;gradientColor=none;html=1;whiteSpace=wrap;fontSize=12;fontStyle=0;container=1;pointerEvents=0;collapsible=0;recursiveResize=0;shape=mxgraph.aws4.group;grIcon=mxgraph.aws4.group_vpc2;strokeColor=#8C4FFF;fillColor=none;verticalAlign=top;align=left;spacingLeft=30;fontColor=#AAB7B8;dashed=0;" vertex="1" parent="VSOZKm9bsuty1RuKZRB--35">
          <mxGeometry x="30" y="340" width="780" height="500" as="geometry" />
        </mxCell>
        <mxCell id="w30GqCXyvYgye3GqoUX_-90" style="edgeStyle=orthogonalEdgeStyle;rounded=0;orthogonalLoop=1;jettySize=auto;html=1;exitX=0;exitY=0.25;exitDx=0;exitDy=0;exitPerimeter=0;" edge="1" parent="w30GqCXyvYgye3GqoUX_-6" source="w30GqCXyvYgye3GqoUX_-36" target="w30GqCXyvYgye3GqoUX_-78">
          <mxGeometry relative="1" as="geometry">
            <Array as="points">
              <mxPoint x="220" y="99" />
              <mxPoint x="220" y="99" />
            </Array>
          </mxGeometry>
        </mxCell>
        <mxCell id="w30GqCXyvYgye3GqoUX_-91" style="edgeStyle=orthogonalEdgeStyle;rounded=0;orthogonalLoop=1;jettySize=auto;html=1;exitX=0;exitY=0.5;exitDx=0;exitDy=0;exitPerimeter=0;" edge="1" parent="w30GqCXyvYgye3GqoUX_-6" source="w30GqCXyvYgye3GqoUX_-36" target="w30GqCXyvYgye3GqoUX_-78">
          <mxGeometry relative="1" as="geometry" />
        </mxCell>
        <mxCell id="w30GqCXyvYgye3GqoUX_-92" style="edgeStyle=orthogonalEdgeStyle;rounded=0;orthogonalLoop=1;jettySize=auto;html=1;exitX=0;exitY=0.75;exitDx=0;exitDy=0;exitPerimeter=0;" edge="1" parent="w30GqCXyvYgye3GqoUX_-6" source="w30GqCXyvYgye3GqoUX_-36" target="w30GqCXyvYgye3GqoUX_-78">
          <mxGeometry relative="1" as="geometry">
            <Array as="points">
              <mxPoint x="210" y="139" />
              <mxPoint x="210" y="139" />
            </Array>
          </mxGeometry>
        </mxCell>
        <mxCell id="w30GqCXyvYgye3GqoUX_-94" style="edgeStyle=orthogonalEdgeStyle;rounded=0;orthogonalLoop=1;jettySize=auto;html=1;exitX=1;exitY=0.25;exitDx=0;exitDy=0;exitPerimeter=0;" edge="1" parent="w30GqCXyvYgye3GqoUX_-6" source="w30GqCXyvYgye3GqoUX_-36" target="w30GqCXyvYgye3GqoUX_-79">
          <mxGeometry relative="1" as="geometry" />
        </mxCell>
        <mxCell id="w30GqCXyvYgye3GqoUX_-97" style="edgeStyle=orthogonalEdgeStyle;rounded=0;orthogonalLoop=1;jettySize=auto;html=1;exitX=1;exitY=0.75;exitDx=0;exitDy=0;exitPerimeter=0;" edge="1" parent="w30GqCXyvYgye3GqoUX_-6" source="w30GqCXyvYgye3GqoUX_-36">
          <mxGeometry relative="1" as="geometry">
            <mxPoint x="530" y="139" as="targetPoint" />
          </mxGeometry>
        </mxCell>
        <mxCell id="w30GqCXyvYgye3GqoUX_-36" value="Elastic Load Balancer" style="sketch=0;points=[[0,0,0],[0.25,0,0],[0.5,0,0],[0.75,0,0],[1,0,0],[0,1,0],[0.25,1,0],[0.5,1,0],[0.75,1,0],[1,1,0],[0,0.25,0],[0,0.5,0],[0,0.75,0],[1,0.25,0],[1,0.5,0],[1,0.75,0]];outlineConnect=0;fontColor=#232F3E;fillColor=#ED7100;strokeColor=#ffffff;dashed=0;verticalLabelPosition=bottom;verticalAlign=top;align=center;html=1;fontSize=12;fontStyle=0;aspect=fixed;shape=mxgraph.aws4.resourceIcon;resIcon=mxgraph.aws4.elastic_load_balancing;" vertex="1" parent="w30GqCXyvYgye3GqoUX_-6">
          <mxGeometry x="315.5" y="80" width="78" height="78" as="geometry" />
        </mxCell>
        <mxCell id="w30GqCXyvYgye3GqoUX_-63" value="Availability zone A" style="fillColor=none;strokeColor=#147EBA;dashed=1;verticalAlign=top;fontStyle=0;fontColor=#147EBA;whiteSpace=wrap;html=1;" vertex="1" parent="w30GqCXyvYgye3GqoUX_-6">
          <mxGeometry y="30" width="290" height="460" as="geometry" />
        </mxCell>
        <mxCell id="w30GqCXyvYgye3GqoUX_-69" value="Availability zone B" style="fillColor=none;strokeColor=#147EBA;dashed=1;verticalAlign=top;fontStyle=0;fontColor=#147EBA;whiteSpace=wrap;html=1;" vertex="1" parent="w30GqCXyvYgye3GqoUX_-6">
          <mxGeometry x="430" y="40" width="290" height="450" as="geometry" />
        </mxCell>
        <mxCell id="w30GqCXyvYgye3GqoUX_-70" value="" style="rounded=1;arcSize=10;dashed=0;fillColor=none;gradientColor=none;strokeWidth=2;" vertex="1" parent="w30GqCXyvYgye3GqoUX_-6">
          <mxGeometry x="35" y="60" width="200" height="190" as="geometry" />
        </mxCell>
        <mxCell id="w30GqCXyvYgye3GqoUX_-71" value="" style="dashed=0;html=1;shape=mxgraph.aws3.permissions;fillColor=#D9A741;gradientColor=none;dashed=0;" vertex="1" parent="w30GqCXyvYgye3GqoUX_-6">
          <mxGeometry x="40" y="45" width="30" height="35" as="geometry" />
        </mxCell>
        <mxCell id="w30GqCXyvYgye3GqoUX_-72" value="" style="rounded=1;arcSize=10;dashed=0;fillColor=none;gradientColor=none;strokeWidth=2;" vertex="1" parent="w30GqCXyvYgye3GqoUX_-6">
          <mxGeometry x="480" y="70" width="200" height="190" as="geometry" />
        </mxCell>
        <mxCell id="w30GqCXyvYgye3GqoUX_-73" value="" style="dashed=0;html=1;shape=mxgraph.aws3.permissions;fillColor=#D9A741;gradientColor=none;dashed=0;" vertex="1" parent="w30GqCXyvYgye3GqoUX_-6">
          <mxGeometry x="500" y="50" width="30" height="35" as="geometry" />
        </mxCell>
        <mxCell id="w30GqCXyvYgye3GqoUX_-74" value="" style="rounded=1;arcSize=10;dashed=0;fillColor=none;gradientColor=none;strokeWidth=2;" vertex="1" parent="w30GqCXyvYgye3GqoUX_-6">
          <mxGeometry x="30" y="270" width="210" height="205" as="geometry" />
        </mxCell>
        <mxCell id="w30GqCXyvYgye3GqoUX_-75" value="" style="dashed=0;html=1;shape=mxgraph.aws3.permissions;fillColor=#D9A741;gradientColor=none;dashed=0;" vertex="1" parent="w30GqCXyvYgye3GqoUX_-6">
          <mxGeometry x="35" y="255" width="30" height="35" as="geometry" />
        </mxCell>
        <mxCell id="w30GqCXyvYgye3GqoUX_-76" value="" style="rounded=1;arcSize=10;dashed=0;fillColor=none;gradientColor=none;strokeWidth=2;" vertex="1" parent="w30GqCXyvYgye3GqoUX_-6">
          <mxGeometry x="480" y="275" width="200" height="200" as="geometry" />
        </mxCell>
        <mxCell id="w30GqCXyvYgye3GqoUX_-77" value="" style="dashed=0;html=1;shape=mxgraph.aws3.permissions;fillColor=#D9A741;gradientColor=none;dashed=0;" vertex="1" parent="w30GqCXyvYgye3GqoUX_-6">
          <mxGeometry x="500" y="255" width="30" height="35" as="geometry" />
        </mxCell>
        <mxCell id="w30GqCXyvYgye3GqoUX_-78" value="Web Server(s)" style="sketch=0;pointerEvents=1;shadow=0;dashed=0;html=1;strokeColor=none;fillColor=#505050;labelPosition=center;verticalLabelPosition=bottom;verticalAlign=top;outlineConnect=0;align=center;shape=mxgraph.office.servers.web_server;" vertex="1" parent="w30GqCXyvYgye3GqoUX_-6">
          <mxGeometry x="131" y="90.5" width="48" height="57" as="geometry" />
        </mxCell>
        <mxCell id="w30GqCXyvYgye3GqoUX_-79" value="&lt;span style=&quot;caret-color: rgb(0, 0, 0); color: rgb(0, 0, 0); font-family: Helvetica; font-size: 12px; font-style: normal; font-variant-caps: normal; font-weight: 400; letter-spacing: normal; text-align: center; text-indent: 0px; text-transform: none; word-spacing: 0px; -webkit-text-stroke-width: 0px; background-color: rgb(251, 251, 251); text-decoration: none; float: none; display: inline !important;&quot;&gt;Web Server(s)&lt;/span&gt;" style="sketch=0;pointerEvents=1;shadow=0;dashed=0;html=1;strokeColor=none;fillColor=#505050;labelPosition=center;verticalLabelPosition=bottom;verticalAlign=top;outlineConnect=0;align=center;shape=mxgraph.office.servers.web_server;" vertex="1" parent="w30GqCXyvYgye3GqoUX_-6">
          <mxGeometry x="530" y="90.5" width="48" height="57" as="geometry" />
        </mxCell>
        <mxCell id="w30GqCXyvYgye3GqoUX_-80" value="VPC Router" style="outlineConnect=0;dashed=0;verticalLabelPosition=bottom;verticalAlign=top;align=center;html=1;shape=mxgraph.aws3.router;fillColor=#F58536;gradientColor=none;" vertex="1" parent="w30GqCXyvYgye3GqoUX_-6">
          <mxGeometry x="325" y="230" width="69" height="72" as="geometry" />
        </mxCell>
        <mxCell id="w30GqCXyvYgye3GqoUX_-81" value="RDS DB&lt;br&gt;Read Replica&lt;br&gt;(optional)" style="outlineConnect=0;dashed=0;verticalLabelPosition=bottom;verticalAlign=top;align=center;html=1;shape=mxgraph.aws3.rds_db_instance_read_replica;fillColor=#2E73B8;gradientColor=none;" vertex="1" parent="w30GqCXyvYgye3GqoUX_-6">
          <mxGeometry x="50" y="320" width="49.5" height="66" as="geometry" />
        </mxCell>
        <mxCell id="w30GqCXyvYgye3GqoUX_-82" value="&lt;span style=&quot;caret-color: rgb(0, 0, 0); color: rgb(0, 0, 0); font-family: Helvetica; font-size: 12px; font-style: normal; font-variant-caps: normal; font-weight: 400; letter-spacing: normal; text-align: center; text-indent: 0px; text-transform: none; word-spacing: 0px; -webkit-text-stroke-width: 0px; background-color: rgb(251, 251, 251); text-decoration: none; float: none; display: inline !important;&quot;&gt;RDS DB&lt;/span&gt;" style="outlineConnect=0;dashed=0;verticalLabelPosition=bottom;verticalAlign=top;align=center;html=1;shape=mxgraph.aws3.rds_db_instance;fillColor=#2E73B8;gradientColor=none;" vertex="1" parent="w30GqCXyvYgye3GqoUX_-6">
          <mxGeometry x="150" y="320" width="50" height="66" as="geometry" />
        </mxCell>
        <mxCell id="w30GqCXyvYgye3GqoUX_-83" value="RDS DB&lt;br style=&quot;border-color: var(--border-color);&quot;&gt;Instance standby&lt;br&gt;(Multiply-AZ" style="outlineConnect=0;dashed=0;verticalLabelPosition=bottom;verticalAlign=top;align=center;html=1;shape=mxgraph.aws3.rds_db_instance_standby_multi_az;fillColor=#2E73B8;gradientColor=none;" vertex="1" parent="w30GqCXyvYgye3GqoUX_-6">
          <mxGeometry x="500" y="302" width="49.5" height="66" as="geometry" />
        </mxCell>
        <mxCell id="w30GqCXyvYgye3GqoUX_-84" value="RDS DB&lt;br style=&quot;border-color: var(--border-color);&quot;&gt;Read Replica&lt;br style=&quot;border-color: var(--border-color);&quot;&gt;(optional)" style="outlineConnect=0;dashed=0;verticalLabelPosition=bottom;verticalAlign=top;align=center;html=1;shape=mxgraph.aws3.rds_db_instance_read_replica;fillColor=#2E73B8;gradientColor=none;" vertex="1" parent="w30GqCXyvYgye3GqoUX_-6">
          <mxGeometry x="610.5" y="310" width="49.5" height="66" as="geometry" />
        </mxCell>
        <mxCell id="w30GqCXyvYgye3GqoUX_-85" value="VPC Subnet 1" style="text;html=1;strokeColor=none;fillColor=none;align=center;verticalAlign=middle;whiteSpace=wrap;rounded=0;" vertex="1" parent="w30GqCXyvYgye3GqoUX_-6">
          <mxGeometry x="40" y="230" width="180" height="15" as="geometry" />
        </mxCell>
        <mxCell id="w30GqCXyvYgye3GqoUX_-86" value="VPC Subnet &amp;nbsp;3" style="text;html=1;strokeColor=none;fillColor=none;align=center;verticalAlign=middle;whiteSpace=wrap;rounded=0;" vertex="1" parent="w30GqCXyvYgye3GqoUX_-6">
          <mxGeometry x="520" y="220" width="150" height="40" as="geometry" />
        </mxCell>
        <mxCell id="w30GqCXyvYgye3GqoUX_-87" value="VPC Subnet 2" style="text;html=1;strokeColor=none;fillColor=none;align=center;verticalAlign=middle;whiteSpace=wrap;rounded=0;" vertex="1" parent="w30GqCXyvYgye3GqoUX_-6">
          <mxGeometry x="70" y="420" width="180" height="40" as="geometry" />
        </mxCell>
        <mxCell id="w30GqCXyvYgye3GqoUX_-89" value="VPC Subnet 4" style="text;html=1;strokeColor=none;fillColor=none;align=center;verticalAlign=middle;whiteSpace=wrap;rounded=0;" vertex="1" parent="w30GqCXyvYgye3GqoUX_-6">
          <mxGeometry x="490" y="450" width="170" height="25" as="geometry" />
        </mxCell>
        <mxCell id="w30GqCXyvYgye3GqoUX_-96" style="edgeStyle=orthogonalEdgeStyle;rounded=0;orthogonalLoop=1;jettySize=auto;html=1;exitX=1;exitY=0.5;exitDx=0;exitDy=0;exitPerimeter=0;" edge="1" parent="w30GqCXyvYgye3GqoUX_-6" source="w30GqCXyvYgye3GqoUX_-36" target="w30GqCXyvYgye3GqoUX_-79">
          <mxGeometry relative="1" as="geometry">
            <mxPoint x="482" y="133" as="targetPoint" />
            <Array as="points">
              <mxPoint x="394" y="130" />
            </Array>
          </mxGeometry>
        </mxCell>
        <mxCell id="w30GqCXyvYgye3GqoUX_-99" value="&amp;nbsp;Auto Scaling group(web)" style="text;html=1;strokeColor=none;fillColor=none;align=center;verticalAlign=middle;whiteSpace=wrap;rounded=0;" vertex="1" parent="w30GqCXyvYgye3GqoUX_-6">
          <mxGeometry x="280" y="209" width="190" height="21" as="geometry" />
        </mxCell>
        <mxCell id="w30GqCXyvYgye3GqoUX_-117" value="" style="html=1;labelBackgroundColor=#ffffff;startArrow=none;startFill=0;startSize=6;endArrow=classic;endFill=1;endSize=6;jettySize=auto;orthogonalLoop=1;strokeWidth=1;dashed=1;fontSize=14;rounded=0;edgeStyle=orthogonalEdgeStyle;" edge="1" parent="w30GqCXyvYgye3GqoUX_-6" target="w30GqCXyvYgye3GqoUX_-81">
          <mxGeometry width="60" height="60" relative="1" as="geometry">
            <mxPoint x="140" y="141" as="sourcePoint" />
            <mxPoint x="240" y="80" as="targetPoint" />
          </mxGeometry>
        </mxCell>
        <mxCell id="w30GqCXyvYgye3GqoUX_-118" value="" style="edgeStyle=segmentEdgeStyle;endArrow=classic;html=1;curved=0;rounded=0;endSize=8;startSize=8;" edge="1" parent="w30GqCXyvYgye3GqoUX_-6">
          <mxGeometry width="50" height="50" relative="1" as="geometry">
            <mxPoint x="174.33" y="162.5" as="sourcePoint" />
            <mxPoint x="174.33" y="332.4999999999998" as="targetPoint" />
            <Array as="points">
              <mxPoint x="174.33" y="142.5" />
              <mxPoint x="174.33" y="142.5" />
            </Array>
          </mxGeometry>
        </mxCell>
        <mxCell id="w30GqCXyvYgye3GqoUX_-130" style="edgeStyle=orthogonalEdgeStyle;rounded=0;orthogonalLoop=1;jettySize=auto;html=1;" edge="1" parent="w30GqCXyvYgye3GqoUX_-6" source="w30GqCXyvYgye3GqoUX_-79" target="w30GqCXyvYgye3GqoUX_-82">
          <mxGeometry relative="1" as="geometry">
            <mxPoint x="200" y="360" as="targetPoint" />
            <Array as="points">
              <mxPoint x="450" y="119" />
              <mxPoint x="450" y="370" />
            </Array>
          </mxGeometry>
        </mxCell>
        <mxCell id="w30GqCXyvYgye3GqoUX_-98" value="" style="rounded=1;arcSize=10;dashed=1;fillColor=none;gradientColor=none;dashPattern=8 3 1 3;strokeWidth=2;" vertex="1" parent="w30GqCXyvYgye3GqoUX_-6">
          <mxGeometry x="10" y="70" width="710" height="160" as="geometry" />
        </mxCell>
        <mxCell id="w30GqCXyvYgye3GqoUX_-132" value="" style="endArrow=classic;startArrow=classic;html=1;rounded=0;edgeStyle=orthogonalEdgeStyle;" edge="1" parent="w30GqCXyvYgye3GqoUX_-6" source="w30GqCXyvYgye3GqoUX_-82">
          <mxGeometry width="50" height="50" relative="1" as="geometry">
            <mxPoint x="230" y="319.9999999999999" as="sourcePoint" />
            <mxPoint x="500" y="353" as="targetPoint" />
            <Array as="points" />
          </mxGeometry>
        </mxCell>
        <mxCell id="w30GqCXyvYgye3GqoUX_-133" value="" style="html=1;labelBackgroundColor=#ffffff;startArrow=none;startFill=0;startSize=6;endArrow=classic;endFill=1;endSize=6;jettySize=auto;orthogonalLoop=1;strokeWidth=1;dashed=1;fontSize=14;rounded=0;edgeStyle=orthogonalEdgeStyle;" edge="1" parent="w30GqCXyvYgye3GqoUX_-6" target="w30GqCXyvYgye3GqoUX_-84">
          <mxGeometry width="60" height="60" relative="1" as="geometry">
            <mxPoint x="590" y="170" as="sourcePoint" />
            <mxPoint x="650" y="110" as="targetPoint" />
          </mxGeometry>
        </mxCell>
        <mxCell id="w30GqCXyvYgye3GqoUX_-1" value="" style="whiteSpace=wrap;html=1;aspect=fixed;" vertex="1" parent="VSOZKm9bsuty1RuKZRB--35">
          <mxGeometry x="40" y="40" width="290" height="290" as="geometry" />
        </mxCell>
        <mxCell id="w30GqCXyvYgye3GqoUX_-2" value="Cloudformation" style="outlineConnect=0;dashed=0;verticalLabelPosition=bottom;verticalAlign=top;align=center;html=1;shape=mxgraph.aws3.cloudformation;fillColor=#759C3E;gradientColor=none;" vertex="1" parent="VSOZKm9bsuty1RuKZRB--35">
          <mxGeometry x="64" y="60" width="76.5" height="93" as="geometry" />
        </mxCell>
        <mxCell id="w30GqCXyvYgye3GqoUX_-3" value="IAM" style="outlineConnect=0;dashed=0;verticalLabelPosition=bottom;verticalAlign=top;align=center;html=1;shape=mxgraph.aws3.iam;fillColor=#759C3E;gradientColor=none;" vertex="1" parent="VSOZKm9bsuty1RuKZRB--35">
          <mxGeometry x="220" y="60" width="42" height="81" as="geometry" />
        </mxCell>
        <mxCell id="w30GqCXyvYgye3GqoUX_-4" value="Cloudwatch" style="outlineConnect=0;dashed=0;verticalLabelPosition=bottom;verticalAlign=top;align=center;html=1;shape=mxgraph.aws3.cloudwatch;fillColor=#759C3E;gradientColor=none;" vertex="1" parent="VSOZKm9bsuty1RuKZRB--35">
          <mxGeometry x="64" y="180" width="82.5" height="93" as="geometry" />
        </mxCell>
        <mxCell id="w30GqCXyvYgye3GqoUX_-5" value="Cloudfront" style="outlineConnect=0;dashed=0;verticalLabelPosition=bottom;verticalAlign=top;align=center;html=1;shape=mxgraph.aws3.cloudfront;fillColor=#F58536;gradientColor=none;" vertex="1" parent="VSOZKm9bsuty1RuKZRB--35">
          <mxGeometry x="203" y="180" width="76.5" height="93" as="geometry" />
        </mxCell>
        <mxCell id="w30GqCXyvYgye3GqoUX_-23" style="edgeStyle=orthogonalEdgeStyle;rounded=0;orthogonalLoop=1;jettySize=auto;html=1;" edge="1" parent="VSOZKm9bsuty1RuKZRB--35" source="w30GqCXyvYgye3GqoUX_-19" target="w30GqCXyvYgye3GqoUX_-22">
          <mxGeometry relative="1" as="geometry" />
        </mxCell>
        <mxCell id="w30GqCXyvYgye3GqoUX_-19" value="S3" style="outlineConnect=0;dashed=0;verticalLabelPosition=bottom;verticalAlign=top;align=center;html=1;shape=mxgraph.aws3.s3;fillColor=#E05243;gradientColor=none;" vertex="1" parent="VSOZKm9bsuty1RuKZRB--35">
          <mxGeometry x="350" y="40" width="76.5" height="92" as="geometry" />
        </mxCell>
        <mxCell id="w30GqCXyvYgye3GqoUX_-20" value="" style="outlineConnect=0;dashed=0;verticalLabelPosition=bottom;verticalAlign=top;align=center;html=1;shape=mxgraph.aws3.glacier;fillColor=#E05243;gradientColor=none;" vertex="1" parent="VSOZKm9bsuty1RuKZRB--35">
          <mxGeometry x="350" y="190" width="76.5" height="93" as="geometry" />
        </mxCell>
        <mxCell id="w30GqCXyvYgye3GqoUX_-21" style="edgeStyle=orthogonalEdgeStyle;rounded=0;orthogonalLoop=1;jettySize=auto;html=1;entryX=0.5;entryY=0;entryDx=0;entryDy=0;entryPerimeter=0;" edge="1" parent="VSOZKm9bsuty1RuKZRB--35" source="w30GqCXyvYgye3GqoUX_-19" target="w30GqCXyvYgye3GqoUX_-20">
          <mxGeometry relative="1" as="geometry" />
        </mxCell>
        <mxCell id="w30GqCXyvYgye3GqoUX_-22" value="Hosted Zone&amp;nbsp;" style="outlineConnect=0;dashed=0;verticalLabelPosition=bottom;verticalAlign=top;align=center;html=1;shape=mxgraph.aws3.hosted_zone;fillColor=#F58536;gradientColor=none;" vertex="1" parent="VSOZKm9bsuty1RuKZRB--35">
          <mxGeometry x="607" y="50" width="63" height="64.5" as="geometry" />
        </mxCell>
        <mxCell id="w30GqCXyvYgye3GqoUX_-28" value="Edge" style="outlineConnect=0;dashed=0;verticalLabelPosition=bottom;verticalAlign=top;align=center;html=1;shape=mxgraph.aws3.edge_location;fillColor=#F58536;gradientColor=none;" vertex="1" parent="VSOZKm9bsuty1RuKZRB--35">
          <mxGeometry x="614.5" y="180" width="48" height="60" as="geometry" />
        </mxCell>
        <mxCell id="w30GqCXyvYgye3GqoUX_-39" style="edgeStyle=orthogonalEdgeStyle;rounded=0;orthogonalLoop=1;jettySize=auto;html=1;" edge="1" parent="VSOZKm9bsuty1RuKZRB--35" source="w30GqCXyvYgye3GqoUX_-35" target="w30GqCXyvYgye3GqoUX_-36">
          <mxGeometry relative="1" as="geometry" />
        </mxCell>
        <mxCell id="w30GqCXyvYgye3GqoUX_-35" value="Internet gateway" style="outlineConnect=0;dashed=0;verticalLabelPosition=bottom;verticalAlign=top;align=center;html=1;shape=mxgraph.aws3.internet_gateway;fillColor=#F58534;gradientColor=none;" vertex="1" parent="VSOZKm9bsuty1RuKZRB--35">
          <mxGeometry x="350" y="308" width="69" height="72" as="geometry" />
        </mxCell>
        <mxCell id="w30GqCXyvYgye3GqoUX_-138" value="" style="line;strokeWidth=2;html=1;rotation=-45;" vertex="1" parent="VSOZKm9bsuty1RuKZRB--35">
          <mxGeometry x="370" y="180" width="300" height="73" as="geometry" />
        </mxCell>
        <mxCell id="w30GqCXyvYgye3GqoUX_-148" value="" style="line;strokeWidth=2;html=1;direction=south;rotation=60;" vertex="1" parent="VSOZKm9bsuty1RuKZRB--35">
          <mxGeometry x="508.87" y="167.19" width="10" height="218.75" as="geometry" />
        </mxCell>
        <mxCell id="w30GqCXyvYgye3GqoUX_-150" value="" style="line;strokeWidth=2;html=1;rotation=-15;" vertex="1" parent="VSOZKm9bsuty1RuKZRB--35">
          <mxGeometry x="660" y="153" width="310" height="10" as="geometry" />
        </mxCell>
        <mxCell id="w30GqCXyvYgye3GqoUX_-156" value="" style="line;strokeWidth=2;html=1;rotation=90;" vertex="1" parent="VSOZKm9bsuty1RuKZRB--35">
          <mxGeometry x="616.75" y="135.25" width="43.5" height="39" as="geometry" />
        </mxCell>
        <mxCell id="w30GqCXyvYgye3GqoUX_-24" value="Internet" style="outlineConnect=0;dashed=0;verticalLabelPosition=bottom;verticalAlign=top;align=center;html=1;shape=mxgraph.aws3.internet_3;fillColor=#D2D3D3;gradientColor=none;" vertex="1" parent="1">
          <mxGeometry x="1010" y="800" width="160" height="114" as="geometry" />
        </mxCell>
        <mxCell id="w30GqCXyvYgye3GqoUX_-26" style="edgeStyle=orthogonalEdgeStyle;rounded=0;orthogonalLoop=1;jettySize=auto;html=1;" edge="1" parent="1" source="w30GqCXyvYgye3GqoUX_-22" target="w30GqCXyvYgye3GqoUX_-24">
          <mxGeometry relative="1" as="geometry" />
        </mxCell>
        <mxCell id="w30GqCXyvYgye3GqoUX_-31" value="Mobile Client" style="outlineConnect=0;dashed=0;verticalLabelPosition=bottom;verticalAlign=top;align=center;html=1;shape=mxgraph.aws3.mobile_client;fillColor=#D2D3D3;gradientColor=none;" vertex="1" parent="1">
          <mxGeometry x="1040" y="953" width="40.5" height="63" as="geometry" />
        </mxCell>
        <mxCell id="w30GqCXyvYgye3GqoUX_-32" value="m" style="edgeStyle=orthogonalEdgeStyle;rounded=0;orthogonalLoop=1;jettySize=auto;html=1;entryX=0.5;entryY=0;entryDx=0;entryDy=0;entryPerimeter=0;" edge="1" parent="1" source="w30GqCXyvYgye3GqoUX_-24" target="w30GqCXyvYgye3GqoUX_-31">
          <mxGeometry relative="1" as="geometry" />
        </mxCell>
        <mxCell id="w30GqCXyvYgye3GqoUX_-33" value="Client" style="outlineConnect=0;dashed=0;verticalLabelPosition=bottom;verticalAlign=top;align=center;html=1;shape=mxgraph.aws3.management_console;fillColor=#D2D3D3;gradientColor=none;" vertex="1" parent="1">
          <mxGeometry x="1130" y="951" width="63" height="65" as="geometry" />
        </mxCell>
        <mxCell id="w30GqCXyvYgye3GqoUX_-34" style="edgeStyle=orthogonalEdgeStyle;rounded=0;orthogonalLoop=1;jettySize=auto;html=1;entryX=0.93;entryY=0.93;entryDx=0;entryDy=0;entryPerimeter=0;" edge="1" parent="1" source="w30GqCXyvYgye3GqoUX_-33" target="w30GqCXyvYgye3GqoUX_-24">
          <mxGeometry relative="1" as="geometry" />
        </mxCell>
        <mxCell id="w30GqCXyvYgye3GqoUX_-158" value="3 Tier Architecture&amp;nbsp;" style="text;strokeColor=none;fillColor=none;html=1;fontSize=24;fontStyle=1;verticalAlign=middle;align=center;" vertex="1" parent="1">
          <mxGeometry x="465" y="1670" width="160" height="50" as="geometry" />
        </mxCell>
        <mxCell id="w30GqCXyvYgye3GqoUX_-159" value="AWS Cloud" style="points=[[0,0],[0.25,0],[0.5,0],[0.75,0],[1,0],[1,0.25],[1,0.5],[1,0.75],[1,1],[0.75,1],[0.5,1],[0.25,1],[0,1],[0,0.75],[0,0.5],[0,0.25]];outlineConnect=0;gradientColor=none;html=1;whiteSpace=wrap;fontSize=12;fontStyle=0;container=1;pointerEvents=0;collapsible=0;recursiveResize=0;shape=mxgraph.aws4.group;grIcon=mxgraph.aws4.group_aws_cloud;strokeColor=#232F3E;fillColor=none;verticalAlign=top;align=left;spacingLeft=30;fontColor=#232F3E;dashed=0;" vertex="1" parent="1">
          <mxGeometry x="50" y="1750" width="950" height="640" as="geometry" />
        </mxCell>
        <mxCell id="w30GqCXyvYgye3GqoUX_-161" value="VPC" style="points=[[0,0],[0.25,0],[0.5,0],[0.75,0],[1,0],[1,0.25],[1,0.5],[1,0.75],[1,1],[0.75,1],[0.5,1],[0.25,1],[0,1],[0,0.75],[0,0.5],[0,0.25]];outlineConnect=0;gradientColor=none;html=1;whiteSpace=wrap;fontSize=12;fontStyle=0;container=1;pointerEvents=0;collapsible=0;recursiveResize=0;shape=mxgraph.aws4.group;grIcon=mxgraph.aws4.group_vpc2;strokeColor=#8C4FFF;fillColor=none;verticalAlign=top;align=left;spacingLeft=30;fontColor=#AAB7B8;dashed=0;" vertex="1" parent="w30GqCXyvYgye3GqoUX_-159">
          <mxGeometry x="40" y="30" width="870" height="590" as="geometry" />
        </mxCell>
        <mxCell id="w30GqCXyvYgye3GqoUX_-162" value="Availability Zone A" style="fillColor=none;strokeColor=#147EBA;dashed=1;verticalAlign=top;fontStyle=0;fontColor=#147EBA;whiteSpace=wrap;html=1;" vertex="1" parent="w30GqCXyvYgye3GqoUX_-161">
          <mxGeometry x="30" y="30" width="300" height="530" as="geometry" />
        </mxCell>
        <mxCell id="w30GqCXyvYgye3GqoUX_-163" value="Availability Zone B" style="fillColor=none;strokeColor=#147EBA;dashed=1;verticalAlign=top;fontStyle=0;fontColor=#147EBA;whiteSpace=wrap;html=1;" vertex="1" parent="w30GqCXyvYgye3GqoUX_-161">
          <mxGeometry x="540" y="30" width="300" height="450" as="geometry" />
        </mxCell>
        <mxCell id="w30GqCXyvYgye3GqoUX_-167" value="P1" style="points=[[0,0],[0.25,0],[0.5,0],[0.75,0],[1,0],[1,0.25],[1,0.5],[1,0.75],[1,1],[0.75,1],[0.5,1],[0.25,1],[0,1],[0,0.75],[0,0.5],[0,0.25]];outlineConnect=0;gradientColor=none;html=1;whiteSpace=wrap;fontSize=12;fontStyle=0;container=1;pointerEvents=0;collapsible=0;recursiveResize=0;shape=mxgraph.aws4.group;grIcon=mxgraph.aws4.group_security_group;grStroke=0;strokeColor=#7AA116;fillColor=#F2F6E8;verticalAlign=top;align=left;spacingLeft=30;fontColor=#248814;dashed=0;" vertex="1" parent="w30GqCXyvYgye3GqoUX_-161">
          <mxGeometry x="50" y="70" width="250" height="150" as="geometry" />
        </mxCell>
        <mxCell id="w30GqCXyvYgye3GqoUX_-168" value="" style="sketch=0;points=[[0,0,0],[0.25,0,0],[0.5,0,0],[0.75,0,0],[1,0,0],[0,1,0],[0.25,1,0],[0.5,1,0],[0.75,1,0],[1,1,0],[0,0.25,0],[0,0.5,0],[0,0.75,0],[1,0.25,0],[1,0.5,0],[1,0.75,0]];outlineConnect=0;fontColor=#232F3E;fillColor=#ED7100;strokeColor=#ffffff;dashed=0;verticalLabelPosition=bottom;verticalAlign=top;align=center;html=1;fontSize=12;fontStyle=0;aspect=fixed;shape=mxgraph.aws4.resourceIcon;resIcon=mxgraph.aws4.ec2;" vertex="1" parent="w30GqCXyvYgye3GqoUX_-167">
          <mxGeometry x="30" y="30" width="60" height="60" as="geometry" />
        </mxCell>
        <mxCell id="w30GqCXyvYgye3GqoUX_-173" value="Prv1" style="points=[[0,0],[0.25,0],[0.5,0],[0.75,0],[1,0],[1,0.25],[1,0.5],[1,0.75],[1,1],[0.75,1],[0.5,1],[0.25,1],[0,1],[0,0.75],[0,0.5],[0,0.25]];outlineConnect=0;gradientColor=none;html=1;whiteSpace=wrap;fontSize=12;fontStyle=0;container=1;pointerEvents=0;collapsible=0;recursiveResize=0;shape=mxgraph.aws4.group;grIcon=mxgraph.aws4.group_security_group;grStroke=0;strokeColor=#00A4A6;fillColor=#E6F6F7;verticalAlign=top;align=left;spacingLeft=30;fontColor=#147EBA;dashed=0;" vertex="1" parent="w30GqCXyvYgye3GqoUX_-161">
          <mxGeometry x="50" y="240" width="240" height="130" as="geometry" />
        </mxCell>
        <mxCell id="w30GqCXyvYgye3GqoUX_-175" value="Prv2" style="points=[[0,0],[0.25,0],[0.5,0],[0.75,0],[1,0],[1,0.25],[1,0.5],[1,0.75],[1,1],[0.75,1],[0.5,1],[0.25,1],[0,1],[0,0.75],[0,0.5],[0,0.25]];outlineConnect=0;gradientColor=none;html=1;whiteSpace=wrap;fontSize=12;fontStyle=0;container=1;pointerEvents=0;collapsible=0;recursiveResize=0;shape=mxgraph.aws4.group;grIcon=mxgraph.aws4.group_security_group;grStroke=0;strokeColor=#00A4A6;fillColor=#E6F6F7;verticalAlign=top;align=left;spacingLeft=30;fontColor=#147EBA;dashed=0;" vertex="1" parent="w30GqCXyvYgye3GqoUX_-161">
          <mxGeometry x="50" y="400" width="250" height="130" as="geometry" />
        </mxCell>
        <mxCell id="w30GqCXyvYgye3GqoUX_-165" value="" style="shape=singleArrow;direction=south;whiteSpace=wrap;html=1;" vertex="1" parent="1">
          <mxGeometry x="300" y="1630" width="60" height="100" as="geometry" />
        </mxCell>
        <mxCell id="w30GqCXyvYgye3GqoUX_-166" value="" style="shape=singleArrow;direction=south;whiteSpace=wrap;html=1;" vertex="1" parent="1">
          <mxGeometry x="370" y="590" width="60" height="100" as="geometry" />
        </mxCell>
      </root>
    </mxGraphModel>
  </diagram>
  <diagram id="EL2kdgfdi3VKzUN_bGAR" name="Page-2">
    <mxGraphModel dx="954" dy="647" grid="1" gridSize="10" guides="1" tooltips="1" connect="1" arrows="1" fold="1" page="1" pageScale="1" pageWidth="850" pageHeight="1100" math="0" shadow="0">
      <root>
        <mxCell id="0" />
        <mxCell id="1" parent="0" />
        <mxCell id="qFIEz4pIe6t5FWkyXABO-1" value="AWS Cloud" style="points=[[0,0],[0.25,0],[0.5,0],[0.75,0],[1,0],[1,0.25],[1,0.5],[1,0.75],[1,1],[0.75,1],[0.5,1],[0.25,1],[0,1],[0,0.75],[0,0.5],[0,0.25]];outlineConnect=0;gradientColor=none;html=1;whiteSpace=wrap;fontSize=12;fontStyle=0;container=1;pointerEvents=0;collapsible=0;recursiveResize=0;shape=mxgraph.aws4.group;grIcon=mxgraph.aws4.group_aws_cloud_alt;strokeColor=#232F3E;fillColor=none;verticalAlign=top;align=left;spacingLeft=30;fontColor=#232F3E;dashed=0;" vertex="1" parent="1">
          <mxGeometry x="60" y="50" width="700" height="430" as="geometry" />
        </mxCell>
        <mxCell id="qFIEz4pIe6t5FWkyXABO-3" value="Region" style="points=[[0,0],[0.25,0],[0.5,0],[0.75,0],[1,0],[1,0.25],[1,0.5],[1,0.75],[1,1],[0.75,1],[0.5,1],[0.25,1],[0,1],[0,0.75],[0,0.5],[0,0.25]];outlineConnect=0;gradientColor=none;html=1;whiteSpace=wrap;fontSize=12;fontStyle=0;container=1;pointerEvents=0;collapsible=0;recursiveResize=0;shape=mxgraph.aws4.group;grIcon=mxgraph.aws4.group_region;strokeColor=#00A4A6;fillColor=none;verticalAlign=top;align=left;spacingLeft=30;fontColor=#147EBA;dashed=1;" vertex="1" parent="qFIEz4pIe6t5FWkyXABO-1">
          <mxGeometry x="20" y="40" width="660" height="370" as="geometry" />
        </mxCell>
        <mxCell id="qFIEz4pIe6t5FWkyXABO-5" value="" style="sketch=0;points=[[0,0,0],[0.25,0,0],[0.5,0,0],[0.75,0,0],[1,0,0],[0,1,0],[0.25,1,0],[0.5,1,0],[0.75,1,0],[1,1,0],[0,0.25,0],[0,0.5,0],[0,0.75,0],[1,0.25,0],[1,0.5,0],[1,0.75,0]];outlineConnect=0;fontColor=#232F3E;fillColor=#8C4FFF;strokeColor=#ffffff;dashed=0;verticalLabelPosition=bottom;verticalAlign=top;align=center;html=1;fontSize=12;fontStyle=0;aspect=fixed;shape=mxgraph.aws4.resourceIcon;resIcon=mxgraph.aws4.cloudfront;" vertex="1" parent="qFIEz4pIe6t5FWkyXABO-3">
          <mxGeometry x="40" y="80" width="78" height="78" as="geometry" />
        </mxCell>
        <mxCell id="qFIEz4pIe6t5FWkyXABO-6" value="" style="sketch=0;points=[[0,0,0],[0.25,0,0],[0.5,0,0],[0.75,0,0],[1,0,0],[0,1,0],[0.25,1,0],[0.5,1,0],[0.75,1,0],[1,1,0],[0,0.25,0],[0,0.5,0],[0,0.75,0],[1,0.25,0],[1,0.5,0],[1,0.75,0]];outlineConnect=0;fontColor=#232F3E;fillColor=#DD344C;strokeColor=#ffffff;dashed=0;verticalLabelPosition=bottom;verticalAlign=top;align=center;html=1;fontSize=12;fontStyle=0;aspect=fixed;shape=mxgraph.aws4.resourceIcon;resIcon=mxgraph.aws4.certificate_manager_3;" vertex="1" parent="qFIEz4pIe6t5FWkyXABO-3">
          <mxGeometry x="170" width="78" height="78" as="geometry" />
        </mxCell>
        <mxCell id="qFIEz4pIe6t5FWkyXABO-8" value="" style="sketch=0;points=[[0,0,0],[0.25,0,0],[0.5,0,0],[0.75,0,0],[1,0,0],[0,1,0],[0.25,1,0],[0.5,1,0],[0.75,1,0],[1,1,0],[0,0.25,0],[0,0.5,0],[0,0.75,0],[1,0.25,0],[1,0.5,0],[1,0.75,0]];outlineConnect=0;fontColor=#232F3E;fillColor=#E7157B;strokeColor=#ffffff;dashed=0;verticalLabelPosition=bottom;verticalAlign=top;align=center;html=1;fontSize=12;fontStyle=0;aspect=fixed;shape=mxgraph.aws4.resourceIcon;resIcon=mxgraph.aws4.api_gateway;" vertex="1" parent="qFIEz4pIe6t5FWkyXABO-3">
          <mxGeometry x="345" width="78" height="78" as="geometry" />
        </mxCell>
        <mxCell id="qFIEz4pIe6t5FWkyXABO-9" value="" style="sketch=0;points=[[0,0,0],[0.25,0,0],[0.5,0,0],[0.75,0,0],[1,0,0],[0,1,0],[0.25,1,0],[0.5,1,0],[0.75,1,0],[1,1,0],[0,0.25,0],[0,0.5,0],[0,0.75,0],[1,0.25,0],[1,0.5,0],[1,0.75,0]];outlineConnect=0;fontColor=#232F3E;fillColor=#ED7100;strokeColor=#ffffff;dashed=0;verticalLabelPosition=bottom;verticalAlign=top;align=center;html=1;fontSize=12;fontStyle=0;aspect=fixed;shape=mxgraph.aws4.resourceIcon;resIcon=mxgraph.aws4.lambda;" vertex="1" parent="qFIEz4pIe6t5FWkyXABO-3">
          <mxGeometry x="520" y="70" width="78" height="78" as="geometry" />
        </mxCell>
        <mxCell id="qFIEz4pIe6t5FWkyXABO-10" value="" style="sketch=0;points=[[0,0,0],[0.25,0,0],[0.5,0,0],[0.75,0,0],[1,0,0],[0,1,0],[0.25,1,0],[0.5,1,0],[0.75,1,0],[1,1,0],[0,0.25,0],[0,0.5,0],[0,0.75,0],[1,0.25,0],[1,0.5,0],[1,0.75,0]];outlineConnect=0;fontColor=#232F3E;fillColor=#7AA116;strokeColor=#ffffff;dashed=0;verticalLabelPosition=bottom;verticalAlign=top;align=center;html=1;fontSize=12;fontStyle=0;aspect=fixed;shape=mxgraph.aws4.resourceIcon;resIcon=mxgraph.aws4.s3;" vertex="1" parent="qFIEz4pIe6t5FWkyXABO-3">
          <mxGeometry x="170" y="220" width="78" height="78" as="geometry" />
        </mxCell>
        <mxCell id="qFIEz4pIe6t5FWkyXABO-11" value="" style="outlineConnect=0;dashed=0;verticalLabelPosition=bottom;verticalAlign=top;align=center;html=1;shape=mxgraph.aws3.dynamo_db;fillColor=#2E73B8;gradientColor=none;" vertex="1" parent="qFIEz4pIe6t5FWkyXABO-3">
          <mxGeometry x="380" y="200" width="72" height="81" as="geometry" />
        </mxCell>
        <mxCell id="qFIEz4pIe6t5FWkyXABO-2" value="Serverless&amp;nbsp;" style="text;html=1;strokeColor=none;fillColor=none;align=center;verticalAlign=middle;whiteSpace=wrap;rounded=0;fontSize=37;" vertex="1" parent="1">
          <mxGeometry x="310" y="10" width="170" height="40" as="geometry" />
        </mxCell>
      </root>
    </mxGraphModel>
  </diagram>
</mxfile>
